<?xml version="1.0" standalone="no"?>
<!DOCTYPE svg PUBLIC "-//W3C//DTD SVG 20010904//EN"
 "http://www.w3.org/TR/2001/REC-SVG-20010904/DTD/svg10.dtd">
<svg version="1.0" xmlns="http://www.w3.org/2000/svg"
 width="64.000000pt" height="64.000000pt" viewBox="0 0 64.000000 64.000000"
 preserveAspectRatio="xMidYMid meet">

<g transform="translate(0.000000,64.000000) scale(0.100000,-0.100000)"
fill="#000000" stroke="none">
<path d="M86 554 l-26 -27 0 -207 0 -207 26 -27 27 -26 207 0 207 0 27 26 26
27 0 207 0 207 -26 27 -27 26 -207 0 -207 0 -27 -26z m456 -12 c22 -22 23 -28
23 -222 0 -194 -1 -200 -23 -222 -22 -22 -28 -23 -222 -23 -264 0 -244 -18
-248 233 -4 272 -12 264 260 260 180 -3 188 -4 210 -26z"/>
<path d="M230 320 c0 -133 1 -140 20 -140 18 0 20 7 20 54 0 58 16 86 50 86
34 0 50 -28 50 -86 0 -47 2 -54 20 -54 18 0 20 7 20 54 0 44 -5 60 -27 86 -23
28 -31 31 -70 28 l-43 -3 0 57 c0 51 -2 58 -20 58 -19 0 -20 -7 -20 -140z"/>
</g>
</svg>
